<svg width="232" height="45" viewBox="0 0 232 45" fill="none" xmlns="http://www.w3.org/2000/svg">
<path d="M41.8875 44.7477L33.7294 44.7974L15.1565 13.521L15.4094 5.61876L41.8875 44.7477Z" fill="#3E9BF1"/>
<path d="M1.93024 20.8387L0.964812 27.7615L15.015 13.6897L15.627 5.61744L1.93024 20.8387Z" fill="#AAD0F3"/>
<path d="M29.7515 0.0493915L29.1582 11.4415L9.04315 44.7789L0.436573 44.8314L29.7515 0.0493915Z" fill="#061FFF"/>
<path d="M29.3918 0.308806L28.9846 11.1429L50.7298 43.9753L53.56 43.5736L57.2072 43.3484L29.3918 0.308806Z" fill="#0A65B9"/>
<path d="M58.1358 44.837L54.5016 39.4879L42.5456 39.5609L43.1071 41.8365L44.0628 44.9228L58.1358 44.837Z" fill="#0A65B9"/>
<path d="M7.25932 44.9325L12.9829 38.8103L30.3958 38.759L33.8219 44.8542L7.25932 44.9325Z" fill="#0A65B9"/>
<path d="M79.4219 17.8086H75.2031V32H71.7461V17.8086H67.5977V14.9375H79.4219V17.8086ZM84.4727 20.4336C85.1914 19.5352 86.0742 19.0859 87.1211 19.0859C88.2773 19.0859 89.1562 19.4922 89.7578 20.3047C90.3594 21.1172 90.6641 22.3281 90.6719 23.9375V32H87.3438V23.9727C87.3438 23.2305 87.2266 22.6953 86.9922 22.3672C86.7656 22.0312 86.3945 21.8633 85.8789 21.8633C85.2773 21.8633 84.8086 22.1406 84.4727 22.6953V32H81.1562V14H84.4727V20.4336ZM98.1719 32.2344C96.4688 32.2344 95.1406 31.7266 94.1875 30.7109C93.2344 29.6953 92.7578 28.2422 92.7578 26.3516V25.3438C92.7578 23.3438 93.1953 21.8008 94.0703 20.7148C94.9453 19.6289 96.1992 19.0859 97.832 19.0859C99.4258 19.0859 100.625 19.5977 101.43 20.6211C102.234 21.6367 102.645 23.1445 102.66 25.1445V26.7734H96.0625C96.1094 27.7109 96.3164 28.3984 96.6836 28.8359C97.0508 29.2656 97.6172 29.4805 98.3828 29.4805C99.4922 29.4805 100.418 29.1016 101.16 28.3438L102.461 30.3477C102.055 30.9102 101.465 31.3672 100.691 31.7188C99.918 32.0625 99.0781 32.2344 98.1719 32.2344ZM96.0859 24.4531H99.4023V24.1484C99.3867 23.3906 99.2617 22.8164 99.0273 22.4258C98.793 22.0352 98.3867 21.8398 97.8086 21.8398C97.2305 21.8398 96.8086 22.0469 96.543 22.4609C96.2852 22.875 96.1328 23.5391 96.0859 24.4531ZM110.23 32V14.9375H114.742C116.734 14.9375 118.32 15.5703 119.5 16.8359C120.688 18.1016 121.293 19.8359 121.316 22.0391V24.8047C121.316 27.0469 120.723 28.8086 119.535 30.0898C118.355 31.3633 116.727 32 114.648 32H110.23ZM113.676 17.8086V29.1406H114.707C115.855 29.1406 116.664 28.8398 117.133 28.2383C117.602 27.6289 117.848 26.582 117.871 25.0977V22.1328C117.871 20.5391 117.648 19.4297 117.203 18.8047C116.758 18.1719 116 17.8398 114.93 17.8086H113.676ZM128.758 32.2344C127.055 32.2344 125.727 31.7266 124.773 30.7109C123.82 29.6953 123.344 28.2422 123.344 26.3516V25.3438C123.344 23.3438 123.781 21.8008 124.656 20.7148C125.531 19.6289 126.785 19.0859 128.418 19.0859C130.012 19.0859 131.211 19.5977 132.016 20.6211C132.82 21.6367 133.23 23.1445 133.246 25.1445V26.7734H126.648C126.695 27.7109 126.902 28.3984 127.27 28.8359C127.637 29.2656 128.203 29.4805 128.969 29.4805C130.078 29.4805 131.004 29.1016 131.746 28.3438L133.047 30.3477C132.641 30.9102 132.051 31.3672 131.277 31.7188C130.504 32.0625 129.664 32.2344 128.758 32.2344ZM126.672 24.4531H129.988V24.1484C129.973 23.3906 129.848 22.8164 129.613 22.4258C129.379 22.0352 128.973 21.8398 128.395 21.8398C127.816 21.8398 127.395 22.0469 127.129 22.4609C126.871 22.875 126.719 23.5391 126.672 24.4531ZM138.156 19.3203L138.25 20.5742C139 19.582 139.98 19.0859 141.191 19.0859C143.371 19.0859 144.492 20.6133 144.555 23.668V32H141.227V23.9141C141.227 23.1953 141.117 22.6758 140.898 22.3555C140.688 22.0273 140.312 21.8633 139.773 21.8633C139.172 21.8633 138.703 22.1719 138.367 22.7891V32H135.039V19.3203H138.156ZM152.957 32C152.863 31.8047 152.77 31.4766 152.676 31.0156C152.082 31.8281 151.277 32.2344 150.262 32.2344C149.199 32.2344 148.316 31.8828 147.613 31.1797C146.918 30.4766 146.57 29.5664 146.57 28.4492C146.57 27.1211 146.992 26.0938 147.836 25.3672C148.688 24.6406 149.91 24.2695 151.504 24.2539H152.512V23.2344C152.512 22.6641 152.414 22.2617 152.219 22.0273C152.023 21.793 151.738 21.6758 151.363 21.6758C150.535 21.6758 150.121 22.1602 150.121 23.1289H146.805C146.805 21.957 147.242 20.9922 148.117 20.2344C149 19.4688 150.113 19.0859 151.457 19.0859C152.848 19.0859 153.922 19.4492 154.68 20.1758C155.445 20.8945 155.828 21.9258 155.828 23.2695V29.2344C155.844 30.3281 156 31.1836 156.297 31.8008V32H152.957ZM151 29.6328C151.367 29.6328 151.68 29.5586 151.938 29.4102C152.195 29.2617 152.387 29.0859 152.512 28.8828V26.2461H151.715C151.152 26.2461 150.707 26.4258 150.379 26.7852C150.059 27.1445 149.898 27.625 149.898 28.2266C149.898 29.1641 150.266 29.6328 151 29.6328ZM161.711 32H158.383V14H161.711V32ZM167.758 32H164.43V19.3203H167.758V32ZM164.277 16.0391C164.277 15.5234 164.441 15.1016 164.77 14.7734C165.098 14.4453 165.535 14.2812 166.082 14.2812C166.629 14.2812 167.066 14.4453 167.395 14.7734C167.723 15.1016 167.887 15.5234 167.887 16.0391C167.887 16.5469 167.723 16.9688 167.395 17.3047C167.074 17.6406 166.637 17.8086 166.082 17.8086C165.527 17.8086 165.086 17.6406 164.758 17.3047C164.438 16.9688 164.277 16.5469 164.277 16.0391ZM187.621 30.0664C186.957 30.7852 186.141 31.3281 185.172 31.6953C184.211 32.0547 183.156 32.2344 182.008 32.2344C180.047 32.2344 178.523 31.6289 177.438 30.418C176.352 29.1992 175.793 27.4297 175.762 25.1094V22.0391C175.762 19.6875 176.273 17.8789 177.297 16.6133C178.328 15.3398 179.828 14.7031 181.797 14.7031C183.648 14.7031 185.043 15.1602 185.98 16.0742C186.926 16.9883 187.473 18.4219 187.621 20.375H184.27C184.176 19.2891 183.949 18.5508 183.59 18.1602C183.23 17.7617 182.668 17.5625 181.902 17.5625C180.973 17.5625 180.297 17.9023 179.875 18.582C179.453 19.2617 179.234 20.3438 179.219 21.8281V24.9219C179.219 26.4766 179.449 27.6094 179.91 28.3203C180.379 29.0234 181.145 29.375 182.207 29.375C182.887 29.375 183.438 29.2383 183.859 28.9648L184.164 28.7539V25.625H181.75V23.0234H187.621V30.0664ZM196.152 22.5195L195.051 22.4258C194.145 22.4258 193.531 22.8242 193.211 23.6211V32H189.883V19.3203H193.012L193.105 20.6914C193.629 19.6211 194.352 19.0859 195.273 19.0859C195.648 19.0859 195.953 19.1367 196.188 19.2383L196.152 22.5195ZM197.055 25.25C197.055 23.3281 197.508 21.8203 198.414 20.7266C199.32 19.6328 200.574 19.0859 202.176 19.0859C203.793 19.0859 205.055 19.6328 205.961 20.7266C206.867 21.8203 207.32 23.3359 207.32 25.2734V26.082C207.32 28.0117 206.871 29.5195 205.973 30.6055C205.074 31.6914 203.816 32.2344 202.199 32.2344C200.574 32.2344 199.309 31.6914 198.402 30.6055C197.504 29.5117 197.055 27.9961 197.055 26.0586V25.25ZM200.383 26.082C200.383 28.3477 200.988 29.4805 202.199 29.4805C203.316 29.4805 203.918 28.5352 204.004 26.6445L204.016 25.25C204.016 24.0938 203.855 23.2383 203.535 22.6836C203.215 22.1211 202.762 21.8398 202.176 21.8398C201.613 21.8398 201.172 22.1211 200.852 22.6836C200.539 23.2383 200.383 24.0938 200.383 25.25V26.082ZM215.629 30.8398C214.941 31.7695 214.02 32.2344 212.863 32.2344C211.699 32.2344 210.816 31.8359 210.215 31.0391C209.613 30.2344 209.312 29.0664 209.312 27.5352V19.3203H212.629V27.6172C212.645 28.8516 213.055 29.4688 213.859 29.4688C214.617 29.4688 215.164 29.1406 215.5 28.4844V19.3203H218.84V32H215.723L215.629 30.8398ZM231.086 26.0586C231.086 28.0508 230.742 29.5781 230.055 30.6406C229.375 31.7031 228.359 32.2344 227.008 32.2344C225.977 32.2344 225.148 31.8164 224.523 30.9805V36.875H221.207V19.3203H224.277L224.395 20.4805C225.027 19.5508 225.891 19.0859 226.984 19.0859C228.336 19.0859 229.352 19.5781 230.031 20.5625C230.719 21.5469 231.07 23.0547 231.086 25.0859V26.0586ZM227.781 25.2266C227.781 24 227.645 23.1328 227.371 22.625C227.105 22.1172 226.652 21.8633 226.012 21.8633C225.332 21.8633 224.836 22.1484 224.523 22.7188V28.6602C224.82 29.207 225.324 29.4805 226.035 29.4805C226.691 29.4805 227.145 29.2031 227.395 28.6484C227.652 28.0938 227.781 27.2305 227.781 26.0586V25.2266Z" fill="white"/>
</svg>
